<mxfile host="app.diagrams.net" agent="Mozilla/5.0 (Windows NT 10.0; Win64; x64) AppleWebKit/537.36 (KHTML, like Gecko) Chrome/134.0.0.0 Safari/537.36" version="26.1.3">
  <diagram name="PÃ¡gina-1" id="esl4oBJ58ZZNNTOPIiHK">
    <mxGraphModel dx="1400" dy="696" grid="1" gridSize="10" guides="1" tooltips="1" connect="1" arrows="1" fold="1" page="1" pageScale="1" pageWidth="827" pageHeight="1169" math="0" shadow="0">
      <root>
        <mxCell id="0" />
        <mxCell id="1" parent="0" />
        <mxCell id="fNIcpcrb9fTyWxpUYVWO-2" style="edgeStyle=orthogonalEdgeStyle;rounded=0;orthogonalLoop=1;jettySize=auto;html=1;entryX=0.5;entryY=0;entryDx=0;entryDy=0;" edge="1" parent="1" source="fNIcpcrb9fTyWxpUYVWO-1" target="fNIcpcrb9fTyWxpUYVWO-4">
          <mxGeometry relative="1" as="geometry">
            <mxPoint x="230" y="150" as="targetPoint" />
          </mxGeometry>
        </mxCell>
        <mxCell id="fNIcpcrb9fTyWxpUYVWO-10" style="edgeStyle=orthogonalEdgeStyle;rounded=0;orthogonalLoop=1;jettySize=auto;html=1;entryX=0.5;entryY=0;entryDx=0;entryDy=0;" edge="1" parent="1" source="fNIcpcrb9fTyWxpUYVWO-1" target="fNIcpcrb9fTyWxpUYVWO-8">
          <mxGeometry relative="1" as="geometry" />
        </mxCell>
        <mxCell id="fNIcpcrb9fTyWxpUYVWO-1" value="REGISTRO DEL JESUITA" style="rounded=1;whiteSpace=wrap;html=1;fillColor=#fff2cc;strokeColor=#d6b656;" vertex="1" parent="1">
          <mxGeometry x="354" y="30" width="120" height="60" as="geometry" />
        </mxCell>
        <mxCell id="fNIcpcrb9fTyWxpUYVWO-5" style="edgeStyle=orthogonalEdgeStyle;rounded=0;orthogonalLoop=1;jettySize=auto;html=1;" edge="1" parent="1" source="fNIcpcrb9fTyWxpUYVWO-4" target="fNIcpcrb9fTyWxpUYVWO-6">
          <mxGeometry relative="1" as="geometry">
            <mxPoint x="225" y="230" as="targetPoint" />
          </mxGeometry>
        </mxCell>
        <mxCell id="fNIcpcrb9fTyWxpUYVWO-4" value="NO" style="rhombus;whiteSpace=wrap;html=1;fillColor=#e51400;fontColor=#ffffff;strokeColor=#B20000;" vertex="1" parent="1">
          <mxGeometry x="200" y="120" width="50" height="40" as="geometry" />
        </mxCell>
        <mxCell id="fNIcpcrb9fTyWxpUYVWO-14" style="edgeStyle=orthogonalEdgeStyle;rounded=0;orthogonalLoop=1;jettySize=auto;html=1;entryX=0.5;entryY=1;entryDx=0;entryDy=0;" edge="1" parent="1" source="fNIcpcrb9fTyWxpUYVWO-6" target="fNIcpcrb9fTyWxpUYVWO-1">
          <mxGeometry relative="1" as="geometry" />
        </mxCell>
        <mxCell id="fNIcpcrb9fTyWxpUYVWO-6" value="REGISTRO INVALIDO" style="rounded=1;whiteSpace=wrap;html=1;fillColor=#f8cecc;strokeColor=#b85450;" vertex="1" parent="1">
          <mxGeometry x="165" y="200" width="120" height="60" as="geometry" />
        </mxCell>
        <mxCell id="fNIcpcrb9fTyWxpUYVWO-7" style="edgeStyle=orthogonalEdgeStyle;rounded=0;orthogonalLoop=1;jettySize=auto;html=1;exitX=0.5;exitY=1;exitDx=0;exitDy=0;" edge="1" parent="1" source="fNIcpcrb9fTyWxpUYVWO-13" target="fNIcpcrb9fTyWxpUYVWO-9">
          <mxGeometry relative="1" as="geometry">
            <mxPoint x="590" y="230" as="targetPoint" />
            <mxPoint x="810" y="210" as="sourcePoint" />
          </mxGeometry>
        </mxCell>
        <mxCell id="fNIcpcrb9fTyWxpUYVWO-12" style="edgeStyle=orthogonalEdgeStyle;rounded=0;orthogonalLoop=1;jettySize=auto;html=1;" edge="1" parent="1" source="fNIcpcrb9fTyWxpUYVWO-8" target="fNIcpcrb9fTyWxpUYVWO-13">
          <mxGeometry relative="1" as="geometry">
            <mxPoint x="650" y="140" as="targetPoint" />
          </mxGeometry>
        </mxCell>
        <mxCell id="fNIcpcrb9fTyWxpUYVWO-8" value="SI" style="rhombus;whiteSpace=wrap;html=1;fillColor=#60a917;fontColor=#ffffff;strokeColor=#2D7600;" vertex="1" parent="1">
          <mxGeometry x="565" y="120" width="50" height="40" as="geometry" />
        </mxCell>
        <mxCell id="fNIcpcrb9fTyWxpUYVWO-15" style="edgeStyle=orthogonalEdgeStyle;rounded=0;orthogonalLoop=1;jettySize=auto;html=1;" edge="1" parent="1" source="fNIcpcrb9fTyWxpUYVWO-9" target="fNIcpcrb9fTyWxpUYVWO-16">
          <mxGeometry relative="1" as="geometry">
            <mxPoint x="590" y="330" as="targetPoint" />
          </mxGeometry>
        </mxCell>
        <mxCell id="fNIcpcrb9fTyWxpUYVWO-9" value="REGISTRO VALIDO" style="rounded=1;whiteSpace=wrap;html=1;fillColor=#d5e8d4;strokeColor=#82b366;" vertex="1" parent="1">
          <mxGeometry x="530" y="200" width="120" height="60" as="geometry" />
        </mxCell>
        <mxCell id="fNIcpcrb9fTyWxpUYVWO-13" value="CODIFICACION DEL CODIGO MEDIANTE METODO HASH" style="rounded=0;whiteSpace=wrap;html=1;fillColor=#f5f5f5;fontColor=#333333;strokeColor=#666666;" vertex="1" parent="1">
          <mxGeometry x="640" y="122.5" width="280" height="35" as="geometry" />
        </mxCell>
        <mxCell id="fNIcpcrb9fTyWxpUYVWO-17" style="edgeStyle=orthogonalEdgeStyle;rounded=0;orthogonalLoop=1;jettySize=auto;html=1;entryX=0.5;entryY=0;entryDx=0;entryDy=0;" edge="1" parent="1" source="fNIcpcrb9fTyWxpUYVWO-16" target="fNIcpcrb9fTyWxpUYVWO-18">
          <mxGeometry relative="1" as="geometry">
            <mxPoint x="350" y="360" as="targetPoint" />
          </mxGeometry>
        </mxCell>
        <mxCell id="fNIcpcrb9fTyWxpUYVWO-22" style="edgeStyle=orthogonalEdgeStyle;rounded=0;orthogonalLoop=1;jettySize=auto;html=1;entryX=0.5;entryY=0;entryDx=0;entryDy=0;" edge="1" parent="1" source="fNIcpcrb9fTyWxpUYVWO-16" target="fNIcpcrb9fTyWxpUYVWO-20">
          <mxGeometry relative="1" as="geometry" />
        </mxCell>
        <mxCell id="fNIcpcrb9fTyWxpUYVWO-16" value="INICIO DE SESION" style="rounded=1;whiteSpace=wrap;html=1;fillColor=#fff2cc;strokeColor=#d6b656;" vertex="1" parent="1">
          <mxGeometry x="530" y="300" width="120" height="60" as="geometry" />
        </mxCell>
        <mxCell id="fNIcpcrb9fTyWxpUYVWO-24" style="edgeStyle=orthogonalEdgeStyle;rounded=0;orthogonalLoop=1;jettySize=auto;html=1;" edge="1" parent="1" source="fNIcpcrb9fTyWxpUYVWO-18" target="fNIcpcrb9fTyWxpUYVWO-25">
          <mxGeometry relative="1" as="geometry">
            <mxPoint x="405" y="500" as="targetPoint" />
          </mxGeometry>
        </mxCell>
        <mxCell id="fNIcpcrb9fTyWxpUYVWO-18" value="SI" style="rhombus;whiteSpace=wrap;html=1;fillColor=#60a917;fontColor=#ffffff;strokeColor=#2D7600;" vertex="1" parent="1">
          <mxGeometry x="380" y="380" width="50" height="40" as="geometry" />
        </mxCell>
        <mxCell id="fNIcpcrb9fTyWxpUYVWO-19" style="edgeStyle=orthogonalEdgeStyle;rounded=0;orthogonalLoop=1;jettySize=auto;html=1;" edge="1" parent="1" source="fNIcpcrb9fTyWxpUYVWO-20" target="fNIcpcrb9fTyWxpUYVWO-21">
          <mxGeometry relative="1" as="geometry">
            <mxPoint x="780" y="480" as="targetPoint" />
          </mxGeometry>
        </mxCell>
        <mxCell id="fNIcpcrb9fTyWxpUYVWO-20" value="NO" style="rhombus;whiteSpace=wrap;html=1;fillColor=#e51400;fontColor=#ffffff;strokeColor=#B20000;" vertex="1" parent="1">
          <mxGeometry x="755" y="370" width="50" height="40" as="geometry" />
        </mxCell>
        <mxCell id="fNIcpcrb9fTyWxpUYVWO-23" style="edgeStyle=orthogonalEdgeStyle;rounded=0;orthogonalLoop=1;jettySize=auto;html=1;entryX=0.5;entryY=1;entryDx=0;entryDy=0;" edge="1" parent="1" source="fNIcpcrb9fTyWxpUYVWO-21" target="fNIcpcrb9fTyWxpUYVWO-16">
          <mxGeometry relative="1" as="geometry" />
        </mxCell>
        <mxCell id="fNIcpcrb9fTyWxpUYVWO-21" value="ERROR EN INICIO" style="rounded=1;whiteSpace=wrap;html=1;fillColor=#f8cecc;strokeColor=#b85450;" vertex="1" parent="1">
          <mxGeometry x="720" y="450" width="120" height="60" as="geometry" />
        </mxCell>
        <mxCell id="fNIcpcrb9fTyWxpUYVWO-29" style="edgeStyle=orthogonalEdgeStyle;rounded=0;orthogonalLoop=1;jettySize=auto;html=1;entryX=0.5;entryY=0;entryDx=0;entryDy=0;" edge="1" parent="1" source="fNIcpcrb9fTyWxpUYVWO-25" target="fNIcpcrb9fTyWxpUYVWO-27">
          <mxGeometry relative="1" as="geometry">
            <mxPoint x="230" y="510" as="targetPoint" />
          </mxGeometry>
        </mxCell>
        <mxCell id="fNIcpcrb9fTyWxpUYVWO-32" style="edgeStyle=orthogonalEdgeStyle;rounded=0;orthogonalLoop=1;jettySize=auto;html=1;" edge="1" parent="1" source="fNIcpcrb9fTyWxpUYVWO-25">
          <mxGeometry relative="1" as="geometry">
            <mxPoint x="590" y="560" as="targetPoint" />
          </mxGeometry>
        </mxCell>
        <mxCell id="fNIcpcrb9fTyWxpUYVWO-25" value="DETERMINAR VISITA" style="rounded=1;whiteSpace=wrap;html=1;fillColor=#fff2cc;strokeColor=#d6b656;" vertex="1" parent="1">
          <mxGeometry x="345" y="470" width="120" height="60" as="geometry" />
        </mxCell>
        <mxCell id="fNIcpcrb9fTyWxpUYVWO-30" style="edgeStyle=orthogonalEdgeStyle;rounded=0;orthogonalLoop=1;jettySize=auto;html=1;" edge="1" parent="1" source="fNIcpcrb9fTyWxpUYVWO-27" target="fNIcpcrb9fTyWxpUYVWO-31">
          <mxGeometry relative="1" as="geometry">
            <mxPoint x="245" y="670" as="targetPoint" />
          </mxGeometry>
        </mxCell>
        <mxCell id="fNIcpcrb9fTyWxpUYVWO-38" style="edgeStyle=orthogonalEdgeStyle;rounded=0;orthogonalLoop=1;jettySize=auto;html=1;exitX=1;exitY=0.5;exitDx=0;exitDy=0;entryX=0;entryY=0.5;entryDx=0;entryDy=0;" edge="1" parent="1" source="fNIcpcrb9fTyWxpUYVWO-27" target="fNIcpcrb9fTyWxpUYVWO-37">
          <mxGeometry relative="1" as="geometry" />
        </mxCell>
        <mxCell id="fNIcpcrb9fTyWxpUYVWO-27" value="SI" style="rhombus;whiteSpace=wrap;html=1;fillColor=#60a917;fontColor=#ffffff;strokeColor=#2D7600;" vertex="1" parent="1">
          <mxGeometry x="220" y="565" width="50" height="40" as="geometry" />
        </mxCell>
        <mxCell id="fNIcpcrb9fTyWxpUYVWO-31" value="PAGINA DE LA CIUDAD" style="rounded=1;whiteSpace=wrap;html=1;fillColor=#d5e8d4;strokeColor=#82b366;" vertex="1" parent="1">
          <mxGeometry x="185" y="640" width="120" height="60" as="geometry" />
        </mxCell>
        <mxCell id="fNIcpcrb9fTyWxpUYVWO-36" style="edgeStyle=orthogonalEdgeStyle;rounded=0;orthogonalLoop=1;jettySize=auto;html=1;" edge="1" parent="1" source="fNIcpcrb9fTyWxpUYVWO-34" target="fNIcpcrb9fTyWxpUYVWO-35">
          <mxGeometry relative="1" as="geometry" />
        </mxCell>
        <mxCell id="fNIcpcrb9fTyWxpUYVWO-39" style="edgeStyle=orthogonalEdgeStyle;rounded=0;orthogonalLoop=1;jettySize=auto;html=1;entryX=1;entryY=0.5;entryDx=0;entryDy=0;" edge="1" parent="1" source="fNIcpcrb9fTyWxpUYVWO-34" target="fNIcpcrb9fTyWxpUYVWO-37">
          <mxGeometry relative="1" as="geometry" />
        </mxCell>
        <mxCell id="fNIcpcrb9fTyWxpUYVWO-34" value="NO" style="rhombus;whiteSpace=wrap;html=1;fillColor=#e51400;fontColor=#ffffff;strokeColor=#B20000;" vertex="1" parent="1">
          <mxGeometry x="565" y="565" width="50" height="40" as="geometry" />
        </mxCell>
        <mxCell id="fNIcpcrb9fTyWxpUYVWO-35" value="PAGINA EN CONSTRUCCION" style="rounded=1;whiteSpace=wrap;html=1;fillColor=#f8cecc;strokeColor=#b85450;" vertex="1" parent="1">
          <mxGeometry x="530" y="640" width="120" height="60" as="geometry" />
        </mxCell>
        <mxCell id="fNIcpcrb9fTyWxpUYVWO-37" value="GUARDAMOS LA VISITA EN LA BASE DE DATOS" style="rounded=0;whiteSpace=wrap;html=1;fillColor=#f5f5f5;fontColor=#333333;strokeColor=#666666;" vertex="1" parent="1">
          <mxGeometry x="305" y="565" width="200" height="40" as="geometry" />
        </mxCell>
        <mxCell id="fNIcpcrb9fTyWxpUYVWO-40" value="registro.html" style="text;html=1;align=center;verticalAlign=middle;resizable=0;points=[];autosize=1;strokeColor=none;fillColor=none;" vertex="1" parent="1">
          <mxGeometry x="369" width="90" height="30" as="geometry" />
        </mxCell>
        <mxCell id="fNIcpcrb9fTyWxpUYVWO-41" value="guardarVisita.php" style="text;html=1;align=center;verticalAlign=middle;resizable=0;points=[];autosize=1;strokeColor=none;fillColor=none;" vertex="1" parent="1">
          <mxGeometry x="345" y="605" width="120" height="30" as="geometry" />
        </mxCell>
        <mxCell id="fNIcpcrb9fTyWxpUYVWO-42" value="nombre_ciudad.html" style="text;html=1;align=center;verticalAlign=middle;resizable=0;points=[];autosize=1;strokeColor=none;fillColor=none;" vertex="1" parent="1">
          <mxGeometry x="180" y="710" width="130" height="30" as="geometry" />
        </mxCell>
        <mxCell id="fNIcpcrb9fTyWxpUYVWO-43" value="inicioSesion.html" style="text;html=1;align=center;verticalAlign=middle;resizable=0;points=[];autosize=1;strokeColor=none;fillColor=none;" vertex="1" parent="1">
          <mxGeometry x="645" y="280" width="110" height="30" as="geometry" />
        </mxCell>
        <mxCell id="fNIcpcrb9fTyWxpUYVWO-44" value="guardar_jesuita.php" style="text;html=1;align=center;verticalAlign=middle;resizable=0;points=[];autosize=1;strokeColor=none;fillColor=none;" vertex="1" parent="1">
          <mxGeometry x="697" y="92.5" width="130" height="30" as="geometry" />
        </mxCell>
        <mxCell id="fNIcpcrb9fTyWxpUYVWO-45" value="visitas.php" style="text;html=1;align=center;verticalAlign=middle;resizable=0;points=[];autosize=1;strokeColor=none;fillColor=none;" vertex="1" parent="1">
          <mxGeometry x="365" y="530" width="80" height="30" as="geometry" />
        </mxCell>
      </root>
    </mxGraphModel>
  </diagram>
</mxfile>
